<svg width="183" height="56" viewBox="0 0 183 56" fill="none" xmlns="http://www.w3.org/2000/svg">
<path d="M74.0371 14.4062L79.75 32.2129L85.4453 14.4062H93.5664V40H87.3789V34.0234L87.9766 21.7891L81.7891 40H77.7109L71.5059 21.7715L72.1035 34.0234V40H65.9336V14.4062H74.0371ZM107.945 40C107.734 39.6133 107.547 39.0449 107.383 38.2949C106.293 39.666 104.77 40.3516 102.812 40.3516C101.02 40.3516 99.4961 39.8125 98.2422 38.7344C96.9883 37.6445 96.3613 36.2793 96.3613 34.6387C96.3613 32.5762 97.123 31.0176 98.6465 29.9629C100.17 28.9082 102.385 28.3809 105.291 28.3809H107.119V27.3789C107.119 25.6328 106.363 24.7598 104.852 24.7598C103.445 24.7598 102.742 25.4512 102.742 26.834H96.8184C96.8184 24.9941 97.5977 23.5 99.1562 22.3516C100.727 21.2031 102.725 20.6289 105.15 20.6289C107.576 20.6289 109.492 21.2207 110.898 22.4043C112.305 23.5879 113.025 25.2109 113.061 27.2734V35.6934C113.084 37.4395 113.354 38.7754 113.869 39.7012V40H107.945ZM104.236 36.1328C104.975 36.1328 105.584 35.9746 106.064 35.6582C106.557 35.3418 106.908 34.9844 107.119 34.5859V31.5449H105.396C103.334 31.5449 102.303 32.4707 102.303 34.3223C102.303 34.8613 102.484 35.3008 102.848 35.6406C103.211 35.9688 103.674 36.1328 104.236 36.1328ZM127.861 26.3418L125.91 26.2012C124.047 26.2012 122.852 26.7871 122.324 27.959V40H116.4V20.9805H121.955L122.148 23.4238C123.145 21.5605 124.533 20.6289 126.314 20.6289C126.947 20.6289 127.498 20.6992 127.967 20.8398L127.861 26.3418ZM136.246 40H130.305V20.9805H136.246V40ZM129.953 16.0762C129.953 15.2324 130.258 14.541 130.867 14.002C131.477 13.4629 132.268 13.1934 133.24 13.1934C134.213 13.1934 135.004 13.4629 135.613 14.002C136.223 14.541 136.527 15.2324 136.527 16.0762C136.527 16.9199 136.223 17.6113 135.613 18.1504C135.004 18.6895 134.213 18.959 133.24 18.959C132.268 18.959 131.477 18.6895 130.867 18.1504C130.258 17.6113 129.953 16.9199 129.953 16.0762ZM139.164 30.3145C139.164 28.416 139.533 26.7285 140.271 25.252C141.01 23.7637 142.07 22.6211 143.453 21.8242C144.836 21.0273 146.459 20.6289 148.322 20.6289C151.17 20.6289 153.414 21.5137 155.055 23.2832C156.695 25.041 157.516 27.4375 157.516 30.4727V30.6836C157.516 33.6484 156.689 36.0039 155.037 37.75C153.396 39.4844 151.17 40.3516 148.357 40.3516C145.65 40.3516 143.477 39.543 141.836 37.9258C140.195 36.2969 139.311 34.0938 139.182 31.3164L139.164 30.3145ZM145.088 30.6836C145.088 32.4414 145.363 33.7305 145.914 34.5508C146.465 35.3711 147.279 35.7812 148.357 35.7812C150.467 35.7812 151.545 34.1582 151.592 30.9121V30.3145C151.592 26.9043 150.502 25.1992 148.322 25.1992C146.342 25.1992 145.27 26.6699 145.105 29.6113L145.088 30.6836ZM170.084 34.6562C170.084 34.1523 169.82 33.748 169.293 33.4434C168.766 33.1387 167.764 32.8223 166.287 32.4941C164.811 32.166 163.592 31.7383 162.631 31.2109C161.67 30.6719 160.938 30.0215 160.434 29.2598C159.93 28.498 159.678 27.625 159.678 26.6406C159.678 24.8945 160.398 23.459 161.84 22.334C163.281 21.1973 165.168 20.6289 167.5 20.6289C170.008 20.6289 172.023 21.1973 173.547 22.334C175.07 23.4707 175.832 24.9648 175.832 26.8164H169.891C169.891 25.293 169.088 24.5312 167.482 24.5312C166.861 24.5312 166.34 24.707 165.918 25.0586C165.496 25.3984 165.285 25.8262 165.285 26.3418C165.285 26.8691 165.543 27.2969 166.059 27.625C166.574 27.9531 167.395 28.2227 168.52 28.4336C169.656 28.6445 170.652 28.8965 171.508 29.1895C174.367 30.1738 175.797 31.9375 175.797 34.4805C175.797 36.2148 175.023 37.627 173.477 38.7168C171.941 39.8066 169.949 40.3516 167.5 40.3516C165.871 40.3516 164.418 40.0586 163.141 39.4727C161.863 38.8867 160.867 38.0898 160.152 37.082C159.438 36.0742 159.08 35.0137 159.08 33.9004H164.617C164.641 34.7793 164.934 35.4238 165.496 35.834C166.059 36.2324 166.779 36.4316 167.658 36.4316C168.467 36.4316 169.07 36.2676 169.469 35.9395C169.879 35.6113 170.084 35.1836 170.084 34.6562Z" fill="#FFE455"/>
<path d="M16.1691 46.4683L20.5438 34.2484L29.2387 41.5471L16.1691 46.4683Z" fill="white"/>
<path d="M46.6526 37.3579L44.2149 34.1326C42.2707 31.5237 46.0727 30.1635 42.5779 26.4543L30.4053 11.9443C29.8703 11.2864 29.0446 11.8822 29.576 12.5431L39.1179 25.6243C39.8388 26.7325 38.4535 27.4925 37.6646 26.3507L27.9886 13.7035C27.4208 12.9416 26.7424 13.6865 27.2301 14.3563L36.7187 27.5402C37.3117 28.3886 36.0243 29.2225 35.4629 28.4155L25.5456 15.4918C25.1063 14.9023 24.3072 15.4074 24.7217 15.9967L34.3288 29.3491C34.9412 30.2938 33.6389 31.0759 32.9767 30.0563L23.2208 17.2821C22.6882 16.5472 21.9703 17.1415 22.4498 17.8567L33.2413 34.4016C35.7551 37.8233 37.5988 34.7759 39.8272 37.6406L42.1365 40.7464C31.3704 46.4492 17.5636 39.5073 16.144 26.7882C14.6245 13.1729 28.4291 3.05724 40.9325 8.62378C52.4816 13.7654 54.9921 28.7563 46.6526 37.3579Z" fill="white"/>
</svg>
