<svg width="177" height="48" viewBox="0 0 177 48" fill="none" xmlns="http://www.w3.org/2000/svg">
<path d="M82.12 36V17.784L75.496 35.64H72.076L65.488 17.568V36H60.988V10.476H67.252L73.948 28.656L80.68 10.476H86.62V36H82.12ZM108.721 35.784C108.337 35.952 108.001 36.072 107.713 36.144C107.449 36.24 107.041 36.288 106.489 36.288C105.505 36.288 104.749 36.024 104.221 35.496C103.693 34.968 103.393 34.356 103.321 33.66C102.889 34.428 102.169 35.088 101.161 35.64C100.153 36.192 98.9775 36.468 97.6335 36.468C96.5055 36.468 95.5215 36.312 94.6815 36C93.8415 35.664 93.1335 35.232 92.5575 34.704C92.0055 34.152 91.5855 33.528 91.2975 32.832C91.0095 32.112 90.8655 31.368 90.8655 30.6C90.8655 29.712 91.0215 28.92 91.3335 28.224C91.6695 27.528 92.1255 26.928 92.7015 26.424C93.2775 25.92 93.9495 25.536 94.7175 25.272C95.4855 24.984 96.3135 24.804 97.2015 24.732L102.709 24.336V23.184C102.709 22.296 102.493 21.588 102.061 21.06C101.653 20.508 100.813 20.232 99.5415 20.232C98.4855 20.232 97.6575 20.46 97.0575 20.916C96.4815 21.372 96.1695 22.032 96.1215 22.896H91.7655C91.8375 21.84 92.0775 20.928 92.4855 20.16C92.9175 19.392 93.4815 18.768 94.1775 18.288C94.8735 17.784 95.6775 17.412 96.5895 17.172C97.5015 16.932 98.4855 16.812 99.5415 16.812C101.149 16.812 102.577 17.1 103.825 17.676C105.097 18.228 106.009 19.212 106.561 20.628C106.801 21.228 106.945 21.852 106.993 22.5C107.065 23.148 107.101 23.784 107.101 24.408V31.356C107.101 31.788 107.173 32.1 107.317 32.292C107.485 32.46 107.761 32.544 108.145 32.544C108.337 32.544 108.469 32.532 108.541 32.508C108.613 32.508 108.673 32.496 108.721 32.472V35.784ZM102.709 27.684L97.9575 28.044C97.2615 28.092 96.6375 28.32 96.0855 28.728C95.5335 29.136 95.2575 29.724 95.2575 30.492C95.2575 31.212 95.5215 31.788 96.0495 32.22C96.6015 32.628 97.2255 32.832 97.9215 32.832C99.3375 32.832 100.489 32.472 101.377 31.752C102.265 31.008 102.709 29.94 102.709 28.548V27.684ZM123.536 21.456C122.984 21.336 122.468 21.276 121.988 21.276C120.404 21.276 119.204 21.78 118.388 22.788C117.572 23.796 117.164 25.056 117.164 26.568V36H112.628V17.28H116.444L116.84 20.088C117.272 19.008 117.98 18.228 118.964 17.748C119.972 17.268 121.028 17.028 122.132 17.028C122.588 17.028 123.056 17.064 123.536 17.136V21.456ZM126.759 14.688V10.044H131.583V14.688H126.759ZM126.903 36V17.28H131.475V36H126.903ZM153.332 26.64C153.332 28.224 153.14 29.556 152.756 30.636C152.372 31.692 151.832 32.664 151.136 33.552C150.488 34.344 149.588 35.028 148.436 35.604C147.308 36.18 146.024 36.468 144.584 36.468C143.144 36.468 141.848 36.18 140.696 35.604C139.568 35.028 138.68 34.344 138.032 33.552C137.336 32.664 136.796 31.692 136.412 30.636C136.028 29.556 135.836 28.224 135.836 26.64C135.836 25.056 136.028 23.736 136.412 22.68C136.796 21.6 137.336 20.616 138.032 19.728C138.68 18.936 139.568 18.252 140.696 17.676C141.848 17.1 143.144 16.812 144.584 16.812C146.024 16.812 147.308 17.1 148.436 17.676C149.588 18.252 150.488 18.936 151.136 19.728C151.832 20.616 152.372 21.6 152.756 22.68C153.14 23.736 153.332 25.056 153.332 26.64ZM148.76 26.64C148.76 25.752 148.676 24.9 148.508 24.084C148.34 23.244 147.98 22.524 147.428 21.924C147.116 21.588 146.72 21.312 146.24 21.096C145.76 20.856 145.208 20.736 144.584 20.736C143.96 20.736 143.408 20.856 142.928 21.096C142.448 21.312 142.052 21.588 141.74 21.924C141.188 22.524 140.828 23.244 140.66 24.084C140.492 24.9 140.408 25.752 140.408 26.64C140.408 27.528 140.492 28.392 140.66 29.232C140.828 30.048 141.188 30.756 141.74 31.356C142.052 31.692 142.448 31.98 142.928 32.22C143.408 32.436 143.96 32.544 144.584 32.544C145.208 32.544 145.76 32.436 146.24 32.22C146.72 31.98 147.116 31.692 147.428 31.356C147.98 30.756 148.34 30.048 148.508 29.232C148.676 28.392 148.76 27.528 148.76 26.64ZM172.207 30.204C172.207 31.116 172.051 31.908 171.739 32.58C171.451 33.252 171.067 33.828 170.587 34.308C169.819 35.076 168.883 35.628 167.779 35.964C166.675 36.3 165.475 36.468 164.179 36.468C162.979 36.468 161.863 36.3 160.831 35.964C159.799 35.604 158.899 35.052 158.131 34.308C157.579 33.78 157.111 33.144 156.727 32.4C156.343 31.656 156.151 30.84 156.151 29.952H160.363C160.363 30.36 160.459 30.768 160.651 31.176C160.843 31.584 161.083 31.908 161.371 32.148C161.731 32.436 162.127 32.652 162.559 32.796C163.015 32.916 163.567 32.976 164.215 32.976C164.599 32.976 165.007 32.952 165.439 32.904C165.895 32.832 166.315 32.712 166.699 32.544C167.083 32.376 167.395 32.136 167.635 31.824C167.899 31.512 168.031 31.104 168.031 30.6C168.031 30.048 167.863 29.604 167.527 29.268C167.191 28.932 166.735 28.716 166.159 28.62C165.319 28.5 164.455 28.404 163.567 28.332C162.679 28.236 161.815 28.092 160.975 27.9C160.327 27.756 159.739 27.528 159.211 27.216C158.707 26.904 158.263 26.532 157.879 26.1C157.495 25.644 157.195 25.152 156.979 24.624C156.787 24.072 156.691 23.496 156.691 22.896C156.691 21.936 156.871 21.12 157.231 20.448C157.591 19.752 158.047 19.164 158.599 18.684C159.295 18.084 160.123 17.628 161.083 17.316C162.043 16.98 163.111 16.812 164.287 16.812C165.415 16.812 166.495 16.992 167.527 17.352C168.583 17.712 169.459 18.264 170.155 19.008C170.659 19.56 171.055 20.172 171.343 20.844C171.655 21.492 171.811 22.164 171.811 22.86H167.527C167.527 22.5 167.455 22.176 167.311 21.888C167.167 21.6 166.987 21.336 166.771 21.096C166.507 20.832 166.147 20.628 165.691 20.484C165.259 20.316 164.803 20.232 164.323 20.232C163.987 20.232 163.663 20.244 163.351 20.268C163.039 20.292 162.715 20.376 162.379 20.52C161.971 20.688 161.623 20.94 161.335 21.276C161.071 21.612 160.939 22.02 160.939 22.5C160.939 23.172 161.167 23.64 161.623 23.904C162.103 24.144 162.595 24.3 163.099 24.372C163.531 24.42 163.891 24.468 164.179 24.516C164.467 24.54 164.755 24.576 165.043 24.624C165.331 24.648 165.631 24.684 165.943 24.732C166.255 24.78 166.639 24.84 167.095 24.912C168.583 25.152 169.807 25.728 170.767 26.64C171.727 27.528 172.207 28.716 172.207 30.204Z" fill="#454444"/>
<rect width="48" height="48" rx="4" fill="#454444"/>
<path d="M32.6187 24.436C33.2545 24.4439 33.8853 24.3236 34.4741 24.0822C35.0629 23.8408 35.5977 23.4831 36.0469 23.0304L40.5385 18.5102C40.8341 18.2109 41 17.8061 41 17.3841C41 16.9621 40.8341 16.5573 40.5385 16.258C40.3909 16.1083 40.2154 15.9895 40.022 15.9084C39.8286 15.8273 39.6211 15.7856 39.4116 15.7856C39.2021 15.7856 38.9947 15.8273 38.8013 15.9084C38.6078 15.9895 38.4323 16.1083 38.2848 16.258L33.7456 20.7623C33.5981 20.912 33.4225 21.0308 33.2291 21.1119C33.0357 21.193 32.8283 21.2347 32.6187 21.2347C32.4092 21.2347 32.2018 21.193 32.0084 21.1119C31.815 21.0308 31.6394 20.912 31.4919 20.7623L37.1103 15.124C37.2583 14.9751 37.3757 14.7983 37.4557 14.6037C37.5358 14.4091 37.5771 14.2006 37.5771 13.99C37.5771 13.7793 37.5358 13.5708 37.4557 13.3762C37.3757 13.1816 37.2583 13.0048 37.1103 12.8559C36.9623 12.707 36.7866 12.5888 36.5933 12.5082C36.3999 12.4276 36.1927 12.3862 35.9834 12.3862C35.7742 12.3862 35.5669 12.4276 35.3736 12.5082C35.1802 12.5888 35.0046 12.707 34.8566 12.8559L29.254 18.5102C28.9584 18.2109 28.7925 17.8061 28.7925 17.3841C28.7925 16.9621 28.9584 16.5573 29.254 16.258L33.7456 11.7378C33.8936 11.5889 34.011 11.4121 34.091 11.2175C34.1711 11.0229 34.2124 10.8144 34.2124 10.6038C34.2124 10.3932 34.1711 10.1846 34.091 9.99004C34.011 9.79546 33.8936 9.61866 33.7456 9.46974C33.5976 9.32081 33.4219 9.20268 33.2286 9.12208C33.0352 9.04148 32.828 9 32.6187 9C32.4095 9 32.2022 9.04148 32.0089 9.12208C31.8155 9.20268 31.6399 9.32081 31.4919 9.46974L27.0003 13.99C26.1087 14.8884 25.6079 16.1063 25.6079 17.3761C25.6079 18.6459 26.1087 19.8638 27.0003 20.7623L24.9371 22.8227L11.8116 9.56557L11.6529 9.46974C11.5717 9.3985 11.4809 9.33933 11.383 9.29404L11.0974 9.18223L10.9069 9.05445H10.4784C10.3838 9.03923 10.2873 9.03923 10.1927 9.05445C10.0966 9.08965 10.0058 9.13802 9.9229 9.19821L9.66896 9.35793H9.55786L9.46263 9.51765C9.39546 9.60199 9.33696 9.69296 9.28805 9.78919C9.24157 9.88658 9.20437 9.9882 9.17695 10.0927V10.2684C8.79181 12.97 9.03736 15.7247 9.89413 18.3142C10.7509 20.9037 12.1953 23.2567 14.1129 25.1867L18.3029 29.3874L9.71657 38.0126C9.56781 38.161 9.44974 38.3377 9.36916 38.5323C9.28859 38.727 9.2471 38.9358 9.2471 39.1466C9.2471 39.3575 9.28859 39.5662 9.36916 39.7609C9.44974 39.9555 9.56781 40.1322 9.71657 40.2807C9.86487 40.4287 10.0408 40.5458 10.2341 40.6253C10.4275 40.7048 10.6346 40.7451 10.8434 40.7439C11.0523 40.7451 11.2594 40.7048 11.4527 40.6253C11.6461 40.5458 11.822 40.4287 11.9703 40.2807L21.6041 30.7291L26.0957 26.2089L29.2699 23.0144C30.1555 23.9152 31.3596 24.4264 32.6187 24.436V24.436ZM20.4773 27.3429L16.3031 23.1262C14.0152 20.7922 12.5827 17.7455 12.2401 14.4851L22.731 25.0269L20.4773 27.3429ZM30.3809 28.2534C30.082 27.9505 29.6759 27.7795 29.2517 27.778C28.8276 27.7765 28.4202 27.9446 28.1193 28.2454C27.8183 28.5462 27.6484 28.9549 27.6469 29.3818C27.6454 29.8086 27.8125 30.2186 28.1113 30.5215L38.1102 40.5841C38.4133 40.8617 38.8114 41.0106 39.2212 40.9994C39.43 41.0006 39.6371 40.9603 39.8305 40.8809C40.0238 40.8014 40.1997 40.6842 40.348 40.5362C40.4968 40.3877 40.6149 40.2111 40.6954 40.0164C40.776 39.8218 40.8175 39.613 40.8175 39.4022C40.8175 39.1913 40.776 38.9825 40.6954 38.7879C40.6149 38.5933 40.4968 38.4166 40.348 38.2681L30.3809 28.2534Z" fill="#FFE455"/>
</svg>

