<svg width="30" height="42" viewBox="0 0 30 42" fill="none" xmlns="http://www.w3.org/2000/svg">
<rect width="30" height="30" rx="4" fill="#454444"/>
<path d="M20.3867 15.2725C20.784 15.2774 21.1783 15.2022 21.5463 15.0514C21.9143 14.9005 22.2486 14.677 22.5293 14.394L25.3365 11.5689C25.5213 11.3818 25.625 11.1288 25.625 10.8651C25.625 10.6013 25.5213 10.3483 25.3365 10.1613C25.2443 10.0677 25.1346 9.99344 25.0137 9.94276C24.8929 9.89208 24.7632 9.86599 24.6323 9.86599C24.5013 9.86599 24.3717 9.89208 24.2508 9.94276C24.1299 9.99344 24.0202 10.0677 23.928 10.1613L21.091 12.9764C20.9988 13.07 20.8891 13.1443 20.7682 13.1949C20.6473 13.2456 20.5177 13.2717 20.3867 13.2717C20.2558 13.2717 20.1261 13.2456 20.0052 13.1949C19.8844 13.1443 19.7746 13.07 19.6824 12.9764L23.1939 9.4525C23.2864 9.35942 23.3598 9.24892 23.4098 9.12731C23.4599 9.00569 23.4857 8.87535 23.4857 8.74372C23.4857 8.61209 23.4599 8.48174 23.4098 8.36013C23.3598 8.23852 23.2864 8.12802 23.1939 8.03494C23.1014 7.94186 22.9916 7.86803 22.8708 7.81765C22.75 7.76728 22.6204 7.74135 22.4896 7.74135C22.3588 7.74135 22.2293 7.76728 22.1085 7.81765C21.9877 7.86803 21.8779 7.94186 21.7854 8.03494L18.2838 11.5689C18.099 11.3818 17.9953 11.1288 17.9953 10.8651C17.9953 10.6013 18.099 10.3483 18.2838 10.1613L21.091 7.33614C21.1835 7.24307 21.2569 7.13257 21.3069 7.01095C21.357 6.88934 21.3827 6.759 21.3827 6.62736C21.3827 6.49573 21.357 6.36539 21.3069 6.24378C21.2569 6.12216 21.1835 6.01166 21.091 5.91859C20.9985 5.82551 20.8887 5.75167 20.7679 5.7013C20.647 5.65093 20.5175 5.625 20.3867 5.625C20.2559 5.625 20.1264 5.65093 20.0056 5.7013C19.8847 5.75167 19.7749 5.82551 19.6824 5.91859L16.8752 8.74372C16.3179 9.30525 16.0049 10.0664 16.0049 10.8601C16.0049 11.6537 16.3179 12.4149 16.8752 12.9764L15.5857 14.2642L7.38223 5.97848L7.28304 5.91859C7.23233 5.87406 7.17554 5.83708 7.11441 5.80878L6.93585 5.7389L6.81682 5.65903H6.54899C6.48985 5.64952 6.42958 5.64952 6.37044 5.65903C6.31039 5.68103 6.25365 5.71126 6.20181 5.74888L6.0431 5.84871H5.97366L5.91415 5.94853C5.87216 6.00124 5.8356 6.0581 5.80503 6.11824C5.77598 6.17912 5.75273 6.24262 5.73559 6.30792V6.41773C5.49488 8.10623 5.64835 9.82795 6.18383 11.4464C6.71932 13.0648 7.62208 14.5354 8.82056 15.7417L11.4393 18.3671L6.07286 23.7579C5.97988 23.8507 5.90609 23.9611 5.85573 24.0827C5.80537 24.2044 5.77944 24.3348 5.77944 24.4666C5.77944 24.5984 5.80537 24.7289 5.85573 24.8505C5.90609 24.9722 5.97988 25.0826 6.07286 25.1754C6.16555 25.2679 6.27547 25.3411 6.39633 25.3908C6.51718 25.4405 6.6466 25.4657 6.77714 25.4649C6.90769 25.4657 7.0371 25.4405 7.15796 25.3908C7.27882 25.3411 7.38874 25.2679 7.48143 25.1754L13.5026 19.2057L16.3098 16.3806L18.2937 14.384C18.8472 14.947 19.5998 15.2665 20.3867 15.2725V15.2725ZM12.7983 17.0893L10.1895 14.4539C8.75951 12.9951 7.86417 11.0909 7.65006 9.05319L14.2069 15.6418L12.7983 17.0893ZM18.9881 17.6584C18.8013 17.4691 18.5474 17.3622 18.2823 17.3612C18.0172 17.3603 17.7626 17.4654 17.5745 17.6534C17.3864 17.8413 17.2802 18.0968 17.2793 18.3636C17.2784 18.6304 17.3828 18.8866 17.5696 19.0759L23.8189 25.3651C24.0083 25.5386 24.2572 25.6316 24.5132 25.6246C24.6438 25.6254 24.7732 25.6002 24.894 25.5505C25.0149 25.5009 25.1248 25.4277 25.2175 25.3351C25.3105 25.2423 25.3843 25.1319 25.4346 25.0103C25.485 24.8886 25.5109 24.7581 25.5109 24.6264C25.5109 24.4946 25.485 24.3641 25.4346 24.2424C25.3843 24.1208 25.3105 24.0104 25.2175 23.9176L18.9881 17.6584Z" fill="#FFE455"/>
<path d="M15 41.5L6 31H25.5L15 41.5Z" fill="#454444"/>
</svg>
